<mxfile host="app.diagrams.net" modified="2023-10-22T09:59:51.625Z" agent="Mozilla/5.0 (Windows NT 10.0; Win64; x64) AppleWebKit/537.36 (KHTML, like Gecko) Chrome/116.0.5845.888 YaBrowser/23.9.2.888 Yowser/2.5 Safari/537.36" etag="NuV8hFfGoLkt_Hehwtwg" version="22.0.6" type="device">
  <diagram name="Страница — 1" id="FQXCptIb6VAIVc97oAcN">
    <mxGraphModel dx="2629" dy="2769" grid="1" gridSize="10" guides="1" tooltips="1" connect="1" arrows="1" fold="1" page="1" pageScale="1" pageWidth="827" pageHeight="1169" math="0" shadow="0">
      <root>
        <mxCell id="0" />
        <mxCell id="1" parent="0" />
        <mxCell id="GpzHbhav1Oh6Ea9I-riV-1" value="Администратор" style="shape=umlActor;verticalLabelPosition=bottom;verticalAlign=top;html=1;outlineConnect=0;" vertex="1" parent="1">
          <mxGeometry x="900" y="190" width="30" height="60" as="geometry" />
        </mxCell>
        <mxCell id="GpzHbhav1Oh6Ea9I-riV-2" value="Пользователь" style="shape=umlActor;verticalLabelPosition=bottom;verticalAlign=top;html=1;outlineConnect=0;" vertex="1" parent="1">
          <mxGeometry x="310" y="95" width="30" height="60" as="geometry" />
        </mxCell>
        <mxCell id="GpzHbhav1Oh6Ea9I-riV-3" value="Добавление треков" style="ellipse;whiteSpace=wrap;html=1;" vertex="1" parent="1">
          <mxGeometry x="90" y="-5" width="120" height="50" as="geometry" />
        </mxCell>
        <mxCell id="GpzHbhav1Oh6Ea9I-riV-4" value="Прослушивание треков" style="ellipse;whiteSpace=wrap;html=1;" vertex="1" parent="1">
          <mxGeometry x="250" y="-15" width="120" height="50" as="geometry" />
        </mxCell>
        <mxCell id="GpzHbhav1Oh6Ea9I-riV-5" value="Добавление треков в библиотеку" style="ellipse;whiteSpace=wrap;html=1;" vertex="1" parent="1">
          <mxGeometry x="419" y="-15" width="130" height="60" as="geometry" />
        </mxCell>
        <mxCell id="GpzHbhav1Oh6Ea9I-riV-6" value="Просмотр треков других пользователей" style="ellipse;whiteSpace=wrap;html=1;" vertex="1" parent="1">
          <mxGeometry x="450" y="55" width="130" height="60" as="geometry" />
        </mxCell>
        <mxCell id="GpzHbhav1Oh6Ea9I-riV-7" value="Регистрация" style="ellipse;whiteSpace=wrap;html=1;" vertex="1" parent="1">
          <mxGeometry x="50" y="65" width="130" height="60" as="geometry" />
        </mxCell>
        <mxCell id="GpzHbhav1Oh6Ea9I-riV-8" value="Авторизация&lt;span style=&quot;white-space: pre;&quot;&gt;&#x9;&lt;/span&gt;" style="ellipse;whiteSpace=wrap;html=1;" vertex="1" parent="1">
          <mxGeometry x="40" y="135" width="130" height="60" as="geometry" />
        </mxCell>
        <mxCell id="GpzHbhav1Oh6Ea9I-riV-9" value="Поиск треков" style="ellipse;whiteSpace=wrap;html=1;" vertex="1" parent="1">
          <mxGeometry x="80" y="205" width="130" height="60" as="geometry" />
        </mxCell>
        <mxCell id="GpzHbhav1Oh6Ea9I-riV-11" value="Редактирование профиля" style="ellipse;whiteSpace=wrap;html=1;" vertex="1" parent="1">
          <mxGeometry x="450" y="135" width="130" height="60" as="geometry" />
        </mxCell>
        <mxCell id="GpzHbhav1Oh6Ea9I-riV-12" value="Удаление аккаунта" style="ellipse;whiteSpace=wrap;html=1;" vertex="1" parent="1">
          <mxGeometry x="400" y="215" width="130" height="60" as="geometry" />
        </mxCell>
        <mxCell id="GpzHbhav1Oh6Ea9I-riV-13" value="" style="endArrow=none;html=1;rounded=0;" edge="1" parent="1" source="GpzHbhav1Oh6Ea9I-riV-7" target="GpzHbhav1Oh6Ea9I-riV-2">
          <mxGeometry width="50" height="50" relative="1" as="geometry">
            <mxPoint x="240" y="175" as="sourcePoint" />
            <mxPoint x="290" y="125" as="targetPoint" />
          </mxGeometry>
        </mxCell>
        <mxCell id="GpzHbhav1Oh6Ea9I-riV-14" value="" style="endArrow=none;html=1;rounded=0;" edge="1" parent="1" source="GpzHbhav1Oh6Ea9I-riV-8">
          <mxGeometry width="50" height="50" relative="1" as="geometry">
            <mxPoint x="200" y="135" as="sourcePoint" />
            <mxPoint x="320" y="135" as="targetPoint" />
          </mxGeometry>
        </mxCell>
        <mxCell id="GpzHbhav1Oh6Ea9I-riV-15" value="" style="endArrow=none;html=1;rounded=0;" edge="1" parent="1" source="GpzHbhav1Oh6Ea9I-riV-9">
          <mxGeometry width="50" height="50" relative="1" as="geometry">
            <mxPoint x="186" y="197" as="sourcePoint" />
            <mxPoint x="300" y="145" as="targetPoint" />
          </mxGeometry>
        </mxCell>
        <mxCell id="GpzHbhav1Oh6Ea9I-riV-16" value="" style="endArrow=none;html=1;rounded=0;exitX=0.783;exitY=0.898;exitDx=0;exitDy=0;exitPerimeter=0;" edge="1" parent="1" source="GpzHbhav1Oh6Ea9I-riV-3">
          <mxGeometry width="50" height="50" relative="1" as="geometry">
            <mxPoint x="187" y="114" as="sourcePoint" />
            <mxPoint x="300" y="115" as="targetPoint" />
          </mxGeometry>
        </mxCell>
        <mxCell id="GpzHbhav1Oh6Ea9I-riV-17" value="" style="endArrow=none;html=1;rounded=0;" edge="1" parent="1" source="GpzHbhav1Oh6Ea9I-riV-4">
          <mxGeometry width="50" height="50" relative="1" as="geometry">
            <mxPoint x="194" y="50" as="sourcePoint" />
            <mxPoint x="325" y="85" as="targetPoint" />
          </mxGeometry>
        </mxCell>
        <mxCell id="GpzHbhav1Oh6Ea9I-riV-18" value="" style="endArrow=none;html=1;rounded=0;exitX=0.278;exitY=0.926;exitDx=0;exitDy=0;exitPerimeter=0;" edge="1" parent="1" source="GpzHbhav1Oh6Ea9I-riV-5" target="GpzHbhav1Oh6Ea9I-riV-2">
          <mxGeometry width="50" height="50" relative="1" as="geometry">
            <mxPoint x="323" y="45" as="sourcePoint" />
            <mxPoint x="331" y="105" as="targetPoint" />
          </mxGeometry>
        </mxCell>
        <mxCell id="GpzHbhav1Oh6Ea9I-riV-19" value="" style="endArrow=none;html=1;rounded=0;exitX=0;exitY=0.5;exitDx=0;exitDy=0;" edge="1" parent="1" source="GpzHbhav1Oh6Ea9I-riV-6">
          <mxGeometry width="50" height="50" relative="1" as="geometry">
            <mxPoint x="465" y="51" as="sourcePoint" />
            <mxPoint x="350" y="125" as="targetPoint" />
          </mxGeometry>
        </mxCell>
        <mxCell id="GpzHbhav1Oh6Ea9I-riV-20" value="" style="endArrow=none;html=1;rounded=0;" edge="1" parent="1" source="GpzHbhav1Oh6Ea9I-riV-11" target="GpzHbhav1Oh6Ea9I-riV-2">
          <mxGeometry width="50" height="50" relative="1" as="geometry">
            <mxPoint x="460" y="95" as="sourcePoint" />
            <mxPoint x="360" y="135" as="targetPoint" />
          </mxGeometry>
        </mxCell>
        <mxCell id="GpzHbhav1Oh6Ea9I-riV-21" value="" style="endArrow=none;html=1;rounded=0;exitX=0;exitY=0;exitDx=0;exitDy=0;" edge="1" parent="1" source="GpzHbhav1Oh6Ea9I-riV-12" target="GpzHbhav1Oh6Ea9I-riV-2">
          <mxGeometry width="50" height="50" relative="1" as="geometry">
            <mxPoint x="466" y="163" as="sourcePoint" />
            <mxPoint x="350" y="138" as="targetPoint" />
          </mxGeometry>
        </mxCell>
        <mxCell id="GpzHbhav1Oh6Ea9I-riV-22" value="Управление пользователями" style="ellipse;whiteSpace=wrap;html=1;" vertex="1" parent="1">
          <mxGeometry x="1010" y="190" width="130" height="60" as="geometry" />
        </mxCell>
        <mxCell id="GpzHbhav1Oh6Ea9I-riV-24" value="Добавление пользователя" style="ellipse;whiteSpace=wrap;html=1;" vertex="1" parent="1">
          <mxGeometry x="1230" y="110" width="130" height="60" as="geometry" />
        </mxCell>
        <mxCell id="GpzHbhav1Oh6Ea9I-riV-25" value="Удаление пользователя" style="ellipse;whiteSpace=wrap;html=1;" vertex="1" parent="1">
          <mxGeometry x="1250" y="180" width="130" height="60" as="geometry" />
        </mxCell>
        <mxCell id="GpzHbhav1Oh6Ea9I-riV-26" value="Редактирование пользователя" style="ellipse;whiteSpace=wrap;html=1;" vertex="1" parent="1">
          <mxGeometry x="1240" y="260" width="130" height="60" as="geometry" />
        </mxCell>
        <mxCell id="GpzHbhav1Oh6Ea9I-riV-29" value="" style="endArrow=classic;html=1;rounded=0;dashed=1;" edge="1" parent="1" source="GpzHbhav1Oh6Ea9I-riV-22" target="GpzHbhav1Oh6Ea9I-riV-25">
          <mxGeometry width="50" height="50" relative="1" as="geometry">
            <mxPoint x="1130" y="290" as="sourcePoint" />
            <mxPoint x="1180" y="240" as="targetPoint" />
            <Array as="points" />
          </mxGeometry>
        </mxCell>
        <mxCell id="GpzHbhav1Oh6Ea9I-riV-30" value="include" style="edgeLabel;html=1;align=center;verticalAlign=middle;resizable=0;points=[];" vertex="1" connectable="0" parent="GpzHbhav1Oh6Ea9I-riV-29">
          <mxGeometry x="-0.2157" relative="1" as="geometry">
            <mxPoint as="offset" />
          </mxGeometry>
        </mxCell>
        <mxCell id="GpzHbhav1Oh6Ea9I-riV-32" value="" style="endArrow=classic;html=1;rounded=0;dashed=1;exitX=0.938;exitY=0.737;exitDx=0;exitDy=0;exitPerimeter=0;entryX=-0.008;entryY=0.35;entryDx=0;entryDy=0;entryPerimeter=0;" edge="1" parent="1" source="GpzHbhav1Oh6Ea9I-riV-22" target="GpzHbhav1Oh6Ea9I-riV-26">
          <mxGeometry width="50" height="50" relative="1" as="geometry">
            <mxPoint x="1150" y="240" as="sourcePoint" />
            <mxPoint x="1261" y="225" as="targetPoint" />
            <Array as="points" />
          </mxGeometry>
        </mxCell>
        <mxCell id="GpzHbhav1Oh6Ea9I-riV-33" value="include" style="edgeLabel;html=1;align=center;verticalAlign=middle;resizable=0;points=[];" vertex="1" connectable="0" parent="GpzHbhav1Oh6Ea9I-riV-32">
          <mxGeometry x="-0.2157" relative="1" as="geometry">
            <mxPoint as="offset" />
          </mxGeometry>
        </mxCell>
        <mxCell id="GpzHbhav1Oh6Ea9I-riV-34" value="" style="endArrow=classic;html=1;rounded=0;dashed=1;exitX=0.665;exitY=0.023;exitDx=0;exitDy=0;exitPerimeter=0;" edge="1" parent="1" source="GpzHbhav1Oh6Ea9I-riV-22" target="GpzHbhav1Oh6Ea9I-riV-24">
          <mxGeometry width="50" height="50" relative="1" as="geometry">
            <mxPoint x="1149" y="235" as="sourcePoint" />
            <mxPoint x="1261" y="225" as="targetPoint" />
            <Array as="points" />
          </mxGeometry>
        </mxCell>
        <mxCell id="GpzHbhav1Oh6Ea9I-riV-35" value="include" style="edgeLabel;html=1;align=center;verticalAlign=middle;resizable=0;points=[];" vertex="1" connectable="0" parent="GpzHbhav1Oh6Ea9I-riV-34">
          <mxGeometry x="-0.2157" relative="1" as="geometry">
            <mxPoint as="offset" />
          </mxGeometry>
        </mxCell>
        <mxCell id="GpzHbhav1Oh6Ea9I-riV-36" value="" style="endArrow=none;html=1;rounded=0;" edge="1" parent="1" source="GpzHbhav1Oh6Ea9I-riV-1" target="GpzHbhav1Oh6Ea9I-riV-22">
          <mxGeometry width="50" height="50" relative="1" as="geometry">
            <mxPoint x="910" y="270" as="sourcePoint" />
            <mxPoint x="960" y="220" as="targetPoint" />
          </mxGeometry>
        </mxCell>
        <mxCell id="GpzHbhav1Oh6Ea9I-riV-37" value="Управление треками" style="ellipse;whiteSpace=wrap;html=1;" vertex="1" parent="1">
          <mxGeometry x="690" y="225" width="130" height="60" as="geometry" />
        </mxCell>
        <mxCell id="GpzHbhav1Oh6Ea9I-riV-38" value="Добавление трека" style="ellipse;whiteSpace=wrap;html=1;" vertex="1" parent="1">
          <mxGeometry x="840" y="350" width="130" height="60" as="geometry" />
        </mxCell>
        <mxCell id="GpzHbhav1Oh6Ea9I-riV-39" value="Удаление трека" style="ellipse;whiteSpace=wrap;html=1;" vertex="1" parent="1">
          <mxGeometry x="530" y="365" width="130" height="60" as="geometry" />
        </mxCell>
        <mxCell id="GpzHbhav1Oh6Ea9I-riV-40" value="Редактирование трека" style="ellipse;whiteSpace=wrap;html=1;" vertex="1" parent="1">
          <mxGeometry x="690" y="365" width="130" height="60" as="geometry" />
        </mxCell>
        <mxCell id="GpzHbhav1Oh6Ea9I-riV-41" value="" style="endArrow=classic;html=1;rounded=0;dashed=1;exitX=0.029;exitY=0.654;exitDx=0;exitDy=0;exitPerimeter=0;" edge="1" parent="1" source="GpzHbhav1Oh6Ea9I-riV-37" target="GpzHbhav1Oh6Ea9I-riV-39">
          <mxGeometry width="50" height="50" relative="1" as="geometry">
            <mxPoint x="863" y="450" as="sourcePoint" />
            <mxPoint x="913" y="400" as="targetPoint" />
            <Array as="points" />
          </mxGeometry>
        </mxCell>
        <mxCell id="GpzHbhav1Oh6Ea9I-riV-42" value="include" style="edgeLabel;html=1;align=center;verticalAlign=middle;resizable=0;points=[];" vertex="1" connectable="0" parent="GpzHbhav1Oh6Ea9I-riV-41">
          <mxGeometry x="-0.2157" relative="1" as="geometry">
            <mxPoint as="offset" />
          </mxGeometry>
        </mxCell>
        <mxCell id="GpzHbhav1Oh6Ea9I-riV-43" value="" style="endArrow=classic;html=1;rounded=0;dashed=1;exitX=0.423;exitY=0.981;exitDx=0;exitDy=0;exitPerimeter=0;" edge="1" parent="1" source="GpzHbhav1Oh6Ea9I-riV-37" target="GpzHbhav1Oh6Ea9I-riV-40">
          <mxGeometry width="50" height="50" relative="1" as="geometry">
            <mxPoint x="883" y="400" as="sourcePoint" />
            <mxPoint x="994" y="385" as="targetPoint" />
            <Array as="points" />
          </mxGeometry>
        </mxCell>
        <mxCell id="GpzHbhav1Oh6Ea9I-riV-44" value="include" style="edgeLabel;html=1;align=center;verticalAlign=middle;resizable=0;points=[];" vertex="1" connectable="0" parent="GpzHbhav1Oh6Ea9I-riV-43">
          <mxGeometry x="-0.2157" relative="1" as="geometry">
            <mxPoint as="offset" />
          </mxGeometry>
        </mxCell>
        <mxCell id="GpzHbhav1Oh6Ea9I-riV-45" value="" style="endArrow=classic;html=1;rounded=0;dashed=1;exitX=1;exitY=1;exitDx=0;exitDy=0;" edge="1" parent="1" source="GpzHbhav1Oh6Ea9I-riV-37" target="GpzHbhav1Oh6Ea9I-riV-38">
          <mxGeometry width="50" height="50" relative="1" as="geometry">
            <mxPoint x="823" y="310" as="sourcePoint" />
            <mxPoint x="994" y="385" as="targetPoint" />
            <Array as="points" />
          </mxGeometry>
        </mxCell>
        <mxCell id="GpzHbhav1Oh6Ea9I-riV-46" value="include" style="edgeLabel;html=1;align=center;verticalAlign=middle;resizable=0;points=[];" vertex="1" connectable="0" parent="GpzHbhav1Oh6Ea9I-riV-45">
          <mxGeometry x="-0.2157" relative="1" as="geometry">
            <mxPoint as="offset" />
          </mxGeometry>
        </mxCell>
        <mxCell id="GpzHbhav1Oh6Ea9I-riV-48" value="" style="endArrow=none;html=1;rounded=0;" edge="1" parent="1" source="GpzHbhav1Oh6Ea9I-riV-37">
          <mxGeometry width="50" height="50" relative="1" as="geometry">
            <mxPoint x="860" y="270" as="sourcePoint" />
            <mxPoint x="910" y="220" as="targetPoint" />
          </mxGeometry>
        </mxCell>
        <mxCell id="GpzHbhav1Oh6Ea9I-riV-49" value="Управление жанрами" style="ellipse;whiteSpace=wrap;html=1;" vertex="1" parent="1">
          <mxGeometry x="860" y="75" width="130" height="60" as="geometry" />
        </mxCell>
        <mxCell id="GpzHbhav1Oh6Ea9I-riV-50" value="Добавление жанра" style="ellipse;whiteSpace=wrap;html=1;" vertex="1" parent="1">
          <mxGeometry x="710" y="-55" width="130" height="60" as="geometry" />
        </mxCell>
        <mxCell id="GpzHbhav1Oh6Ea9I-riV-51" value="Удаление жанра" style="ellipse;whiteSpace=wrap;html=1;" vertex="1" parent="1">
          <mxGeometry x="870" y="-75" width="130" height="60" as="geometry" />
        </mxCell>
        <mxCell id="GpzHbhav1Oh6Ea9I-riV-52" value="Редактирование жанра" style="ellipse;whiteSpace=wrap;html=1;" vertex="1" parent="1">
          <mxGeometry x="1020" y="-65" width="130" height="60" as="geometry" />
        </mxCell>
        <mxCell id="GpzHbhav1Oh6Ea9I-riV-53" value="" style="endArrow=classic;html=1;rounded=0;dashed=1;" edge="1" parent="1" source="GpzHbhav1Oh6Ea9I-riV-49" target="GpzHbhav1Oh6Ea9I-riV-51">
          <mxGeometry width="50" height="50" relative="1" as="geometry">
            <mxPoint x="980" y="175" as="sourcePoint" />
            <mxPoint x="1030" y="125" as="targetPoint" />
            <Array as="points" />
          </mxGeometry>
        </mxCell>
        <mxCell id="GpzHbhav1Oh6Ea9I-riV-54" value="include" style="edgeLabel;html=1;align=center;verticalAlign=middle;resizable=0;points=[];" vertex="1" connectable="0" parent="GpzHbhav1Oh6Ea9I-riV-53">
          <mxGeometry x="-0.2157" relative="1" as="geometry">
            <mxPoint as="offset" />
          </mxGeometry>
        </mxCell>
        <mxCell id="GpzHbhav1Oh6Ea9I-riV-55" value="" style="endArrow=classic;html=1;rounded=0;dashed=1;exitX=1;exitY=0.5;exitDx=0;exitDy=0;" edge="1" parent="1" source="GpzHbhav1Oh6Ea9I-riV-49" target="GpzHbhav1Oh6Ea9I-riV-52">
          <mxGeometry width="50" height="50" relative="1" as="geometry">
            <mxPoint x="1000" y="125" as="sourcePoint" />
            <mxPoint x="1111" y="110" as="targetPoint" />
            <Array as="points" />
          </mxGeometry>
        </mxCell>
        <mxCell id="GpzHbhav1Oh6Ea9I-riV-56" value="include" style="edgeLabel;html=1;align=center;verticalAlign=middle;resizable=0;points=[];" vertex="1" connectable="0" parent="GpzHbhav1Oh6Ea9I-riV-55">
          <mxGeometry x="-0.2157" relative="1" as="geometry">
            <mxPoint as="offset" />
          </mxGeometry>
        </mxCell>
        <mxCell id="GpzHbhav1Oh6Ea9I-riV-57" value="" style="endArrow=classic;html=1;rounded=0;dashed=1;exitX=0.085;exitY=0.272;exitDx=0;exitDy=0;exitPerimeter=0;" edge="1" parent="1" source="GpzHbhav1Oh6Ea9I-riV-49" target="GpzHbhav1Oh6Ea9I-riV-50">
          <mxGeometry width="50" height="50" relative="1" as="geometry">
            <mxPoint x="999" y="120" as="sourcePoint" />
            <mxPoint x="1111" y="110" as="targetPoint" />
            <Array as="points" />
          </mxGeometry>
        </mxCell>
        <mxCell id="GpzHbhav1Oh6Ea9I-riV-58" value="include" style="edgeLabel;html=1;align=center;verticalAlign=middle;resizable=0;points=[];" vertex="1" connectable="0" parent="GpzHbhav1Oh6Ea9I-riV-57">
          <mxGeometry x="-0.2157" relative="1" as="geometry">
            <mxPoint as="offset" />
          </mxGeometry>
        </mxCell>
        <mxCell id="GpzHbhav1Oh6Ea9I-riV-60" value="" style="endArrow=none;html=1;rounded=0;" edge="1" parent="1" source="GpzHbhav1Oh6Ea9I-riV-49">
          <mxGeometry width="50" height="50" relative="1" as="geometry">
            <mxPoint x="940" y="230" as="sourcePoint" />
            <mxPoint x="920" y="180" as="targetPoint" />
          </mxGeometry>
        </mxCell>
      </root>
    </mxGraphModel>
  </diagram>
</mxfile>
